<?xml version="1.0" encoding="UTF-8"?>
<svg id="Camada_1" data-name="Camada 1" xmlns="http://www.w3.org/2000/svg" version="1.1" viewBox="0 0 2113.6 624.1">
  <defs>
    <style>
      .cls-1 {
        fill: #bed754;
        stroke-width: 0px;
      }
    </style>
  </defs>
  <path class="cls-1" d="M631.3,83.3c-25.8,2.5-52.6,12-74.3,26.4-9.7,6.4-30.1,26.9-36.5,36.5-18.2,27.5-26.6,59.1-25.2,94.5.3,7.7,1.3,18,2.2,23,3.1,17.3,12.1,39.6,21.6,53.7,33.5,49.3,100,69,163.9,48.6,29-9.3,55.8-29,72.7-53.5l3.8-5.5.3,18.3c.6,36.9-3.9,61.9-14.9,83.4-18,35.2-51.3,54.2-98.4,56.2-23.3.9-45.9-2.4-68.8-10.1-7-2.4-12.9-4-13.1-3.7-.6,1.1-9.6,30.8-9.6,31.8,0,2.3,30.7,11,51,14.6,10.6,1.8,16.3,2.1,38.5,2.2,23.2,0,27.2-.2,37.3-2.3,21.2-4.3,40.8-12.4,57.2-23.5,10-6.9,27.3-24.3,33.8-34.2,11.3-17.1,20-38.7,24.1-59.7,3.7-19.2,4.3-34.2,3.8-97.4-.4-65.4-.7-69.2-6.7-92-16.4-62-62.3-101.2-125.9-107.4-11.1-1.1-25.1-1.1-36.8.1ZM678.1,124.5c30.7,8,53.3,25.7,67.4,52.8,10.2,19.7,13.5,35.2,14.2,66.9l.5,22.5-5.9,9.4c-19.3,31-45.1,50.6-77.1,58.7-37.7,9.6-79.4,2.2-105.2-18.5-27.6-22-40.7-61-34.6-102.1,7.5-49.7,42.3-84,93.1-92,3.3-.5,13.2-.7,22-.5,13,.3,17.8.8,25.6,2.8Z"/>
  <path class="cls-1" d="M1002.5,82.8c-42.4,4.5-76.4,20.2-101.4,47-32.5,34.8-46,88.4-35.1,138.8,3,13.4,5.5,20.8,12.1,34.1,17.9,36.7,50.9,61.7,92.7,70.2,13.6,2.8,49.1,2.5,62.9-.5,38.4-8.4,69.1-28.8,90.9-60.6l5.4-8v68.4h38v-71c0-43.2-.4-74.9-1.1-80.8-8.1-74.4-51.7-124-119.4-135.7-8.8-1.5-37.1-2.7-45-1.9ZM1037.2,122.7c48.1,7.2,80.4,41.6,88.3,94,.9,6.2,1.5,17.2,1.5,29v19l-4.3,7.5c-12.7,22.4-32.5,42-53.2,52.7-27.7,14.3-62.4,17.9-93.3,9.8-36.8-9.7-62.2-36.9-70.5-75.5-2.8-13.3-2.8-37.5,0-51,4.7-22,13.6-39,27.8-53.5,13.2-13.5,27.5-22.3,45.5-28,17-5.3,39.2-6.9,58.2-4Z"/>
  <path class="cls-1" d="M1339.5,83.2c-24.1,2.8-46,12.1-63.3,26.8-16.9,14.4-30.5,40.2-36.2,68.1-3.7,18.6-4,27.2-4,111.6v82.5h37.9l.4-84.3c.3-59.8.8-86.3,1.6-91.6,6.8-41.3,24.1-63.4,56.7-72.3,6.8-1.8,10.6-2.1,26.4-2.1,21-.1,28.4,1.3,42,7.9,11.3,5.5,23,17.7,29.3,30.4,2.5,5.2,5.8,13.8,7.1,19,5.3,19.9,5.6,26.4,5.6,113.1v79.9h38.9l.4-84.8c.3-74.7.5-85.8,2-94.2,7.5-41.2,24-61.2,57.6-69.8,10.2-2.6,39.9-2.2,50.3.6,25.3,6.9,42.6,23.6,51.2,49.4,6,17.9,6,17.5,6.3,112l.4,86.8h38.9v-84.5c0-91.2-.2-95.4-5.5-116.6-7.4-29.5-21.9-52.3-43-67.4-9.1-6.5-25.7-14.2-37-17.1-28.1-7.1-65.9-4.9-88.7,5.2-20.6,9.1-38.6,25.6-49.4,45.1-1.6,2.9-3.2,5.3-3.5,5.3s-1.2-1.4-2-3.2c-2.7-6.5-11.4-18.6-18.8-25.9-15.3-15.2-33.4-24.4-56.1-28.5-10.4-1.9-34.6-2.6-45.5-1.4Z"/>
  <path class="cls-1" d="M1887.3,83.3c-60.6,5.8-110,43.9-128.2,98.6-6.1,18.1-8.6,37.7-7.8,58.8,2.8,69.8,46.3,121.4,111.9,132.6,10.6,1.8,14.9,2.1,31.3,1.6,20.2-.6,29.8-2.1,45-7.1,12-4,30.9-13.8,40.6-21,10.9-8.3,24.8-22.8,32.4-34l6-8.8.3,34.1.2,34.1h38v-67.8c0-37.2-.5-72.9-1-79.2-5.1-58.7-32.1-103.4-76.1-126-26.6-13.7-58.8-19.2-92.6-15.9ZM1934.2,124.1c36,8.3,62.3,32.9,74.8,70.1,4.5,13.5,6.1,24.4,6.7,47.7l.6,22.2-4.8,8.1c-10.8,18.5-26.8,35.7-42.8,46.4-40.7,27.1-100.8,27.2-137.3.3-26.9-19.8-40.8-51.9-39.1-90.5,1.4-32.1,11.9-56.7,32.8-76.7,16.4-15.7,35.5-24.9,60.4-29.1,11.4-1.9,37.3-1.1,48.7,1.5Z"/>
  <path class="cls-1" d="M142.5,88.2c-45.8,23.8-77.6,68.7-84.9,119.7l-.6,4.3h21.5c11.8,0,21.5-.3,21.5-.8,0-3,2.4-19.5,4.1-28,2.2-11.2,7.6-29,11.6-38.7,7.8-18.6,21.5-41.6,32.7-54.8,3.1-3.7,5.2-6.7,4.6-6.7s-5.3,2.2-10.5,5Z"/>
  <path class="cls-1" d="M277.7,85.5c7.5,9.7,16.7,22.4,20.6,28.7,15.3,24.9,27.8,62.1,30.3,90.2l.7,7.8h21.3c17.5,0,21.4-.3,21.4-1.4,0-4.4-3.5-20.3-6.6-29.9-12.7-39.2-41.2-73.1-77.6-92.2-5.7-3-10.7-5.5-11.1-5.5s0,1.1,1,2.3Z"/>
  <path class="cls-1" d="M187.8,95.4c-30.1,29.8-49.5,69.4-54.3,111l-.6,5.8h65.1v-63c0-34.7-.2-63-.4-63s-4.7,4.2-9.8,9.2Z"/>
  <path class="cls-1" d="M231,149.1v63.1h65.3l-.7-6.8c-2.7-28.3-15.8-61.7-34.3-87.3-6.1-8.5-22.6-26.5-27.4-30l-2.9-2v63Z"/>
  <path class="cls-1" d="M57.5,248.9c6.2,38.7,21.7,68.9,48.3,94.4,10,9.7,26.3,21.4,37.4,27,11.2,5.6,11.3,5.6,3.5-4.4-26.5-33.9-41.7-71.6-46.2-114.5l-.7-6.2h-42.9l.6,3.7Z"/>
  <path class="cls-1" d="M133,246.9c0,3.8,3.2,21.2,5.6,30.8,5.7,22.3,16.7,45.1,31.3,64.5,6,8,23.3,26.5,26.3,28.1,1.7.9,1.8-1.5,1.8-62.1v-63h-32.5c-30.3,0-32.5.1-32.5,1.7Z"/>
  <path class="cls-1" d="M231,308.8v63.5l6.4-5.7c19.7-17.4,40.3-48.8,49.5-75.5,3.7-10.7,7.8-29.2,8.7-38.7l.7-7.2h-65.3v63.6Z"/>
  <path class="cls-1" d="M329,248.9c0,5.7-3.6,26.5-6.5,37.7-7.4,28.6-23.3,59.8-41.5,81.4-3.3,4-5.7,7.2-5.4,7.2s5.4-2.5,11.3-5.5c33.9-17.7,60.5-46.9,74.7-82.1,4-9.7,8.8-27.6,9.9-36.7l.7-5.7h-43.2v3.7Z"/>
  <path class="cls-1" d="M1017.5,459.7c-1.4,1.3-2.5,3.1-2.5,4,0,2.1,4.4,6.5,6.5,6.5s6.5-4.4,6.5-6.5-4.4-6.5-6.5-6.5-2.7,1.1-4,2.5Z"/>
  <path class="cls-1" d="M1478,458.5c-3.7,1.8-4.1,8-.7,10.2,3,1.9,7.3,1.1,8.7-1.5,3.1-5.9-2.2-11.6-8-8.7Z"/>
  <path class="cls-1" d="M1423,473.7v9.5h-19v8h19v64h8v-64h20v-8h-20v-19h-8v9.5Z"/>
  <path class="cls-1" d="M1853,473.7v9.5h-19v8h19v64h8v-64h20v-8h-20v-19h-8v9.5Z"/>
  <path class="cls-1" d="M1080.7,482.2c-7.1,1.3-13.2,4.6-17.6,9.6-6.8,7.7-7.4,10.6-7.9,38.6l-.4,24.8h9.2v-22.8c0-13,.5-24.4,1.1-26.7,2.8-10.6,11.2-16.5,23.3-16.5s13.8,1.4,18.3,5.3c7.1,6.2,7.7,9.1,8.1,36.4l.4,24.3h7.9l-.3-25.7c-.3-24.4-.4-26.1-2.6-30.8-3.1-6.8-8.6-12.1-14.8-14.5-6.1-2.2-17.9-3.2-24.7-2Z"/>
  <path class="cls-1" d="M1255,482.5c-9.6,2.2-18.3,8.6-22.5,16.7-4.9,9.5-5.5,25.5-1.4,36.7,2.9,7.7,11.3,16.2,18.4,18.7,16,5.4,31.3,1.5,40.2-10.2,4.4-5.8,4.3-7.2-.5-7.2s-4.3.6-7,3.9c-8.1,10-24.4,11.3-35.7,2.7-4.1-3.2-8.5-11.4-9.2-17.6l-.6-5h30.2c23.4,0,30.1-.3,30.2-1.3.6-7.3-1.9-17.8-5.6-23.7-7.2-11.3-22.1-16.9-36.5-13.7ZM1273.5,491.1c5.6,2.5,11.1,9,12.9,15.2.9,2.9,1.6,5.9,1.6,6.6,0,1-5.1,1.3-25.6,1.3h-25.6l.7-3.3c1.9-9,7.5-16.4,15-19.8,5.3-2.5,15.7-2.5,21,0Z"/>
  <path class="cls-1" d="M1343,482.6c-12.6,2.7-19,9.5-19,20s6.4,17.3,30.2,21.1c12.5,1.9,17.4,3.9,19.4,7.7,3.1,5.9-.8,13.6-8.2,16.4-5.4,2.1-17.8,2.4-24.1.6-5.3-1.6-10-6.2-10.9-10.7-.6-3.3-.9-3.5-4.5-3.5s-3.9.2-3.9,2.9c0,10.7,10.3,18.4,26.5,19.8,21.6,1.8,35.8-8,34.3-23.7-1-10.3-7.1-14.1-27.8-17.6-7.6-1.2-15.2-3-16.9-3.8-9.1-4.8-7.7-16.2,2.6-20.8,6.5-2.9,20.2-2.3,25.6,1.1,3.9,2.4,6.7,6.6,6.7,10.1s.6,2,4.5,2h4.6l-.7-3.8c-1.8-9.9-8.7-15.9-20.9-18.1-7.2-1.3-10.4-1.3-17.5.3Z"/>
  <path class="cls-1" d="M1536.3,482.2c-8.4,1.8-14.5,6.9-18.5,15.5-2.2,4.7-2.3,6.3-2.6,31.3l-.3,26.2h7.9l.4-24.7.3-24.8,3-6c3.8-7.6,8.3-10.5,16.8-10.5s11.5,1.8,15.4,6.5c4.7,5.6,5.3,9.9,5.3,35.9v23.6h9v-23.8c0-24.6.5-28.7,4.3-34.2,4.2-6.2,6.9-7.5,16.1-7.5s8.6.2,12,2.9c7.3,5.5,8,8.7,8.4,37.3l.4,25.3h7.8v-24.3c0-26.6-.8-32.1-5.7-39.2-1.9-2.6-4.8-5-8.7-6.9-5.1-2.6-7-3-14.1-3-10.1,0-16.5,2.7-21,9.1-1.6,2.3-3.3,4.2-3.6,4.2-.4.1-1.9-1.7-3.4-3.9-5.1-7.3-18.1-11.3-29.2-9Z"/>
  <path class="cls-1" d="M1676.4,482.2c-10.6,2.2-19.4,9.3-24.1,19.5-2.6,5.5-2.8,7-2.8,17.5s.2,11.9,3.1,18.1c5.6,11.8,14.9,18.4,27.6,19.5,7.8.8,17.7-1.5,23.3-5.4,3.7-2.5,10.5-11.2,10.5-13.3s-1.9-.9-4.2-.9c-3.8,0-4.6.4-6.5,3.4-1.4,2.1-4.3,4.5-7.9,6.2-17,8.3-35.6-2.6-37.6-22.1l-.3-3,30.4-.3,30.4-.2-.6-6.8c-.7-8.8-2.1-13-6-18.9-7-10.4-22.1-16.1-35.3-13.3ZM1694.5,491.1c6.9,3.2,12,10.5,14,19.8l.7,3.3h-25.6c-28.9,0-27.1.6-24.1-8.1,3.6-10.4,13-16.9,24.4-16.9s8,.7,10.6,1.9Z"/>
  <path class="cls-1" d="M1770.7,482.2c-6.9,1.2-15.3,5.6-18.2,9.4-1.3,1.8-3.5,5.4-4.7,8.2-2.2,4.6-2.3,6.4-2.6,30.2l-.4,25.2h8l.4-23.8c.3-22,.5-24.1,2.6-28.7,3-6.5,4.7-8.3,10.7-11.1,5.7-2.7,16-3.2,22.9-1.2,5.8,1.8,12,8.2,13.4,14,.8,2.9,1.2,13.5,1.2,27.7v23.1h9.2l-.4-25.3c-.4-21.2-.8-26-2.3-30.2-2.6-7-9.5-13.6-16.5-15.8-6.9-2.1-17-2.8-23.3-1.7Z"/>
  <path class="cls-1" d="M1925,482.5c-18.7,4.4-28,18.3-26.7,39.7.6,11.3,3.6,19,9.7,25,13,13.1,41.1,13,53.7-.2,1.8-1.8,4.4-6,6-9.3,3.5-7.7,4.5-23,1.9-31.6-3.3-11.3-10.8-19.4-21-22.4-7.2-2.2-17.2-2.7-23.6-1.2ZM1948.5,491.9c9.4,4.9,13.9,13.4,13.9,26.3.1,11.3-1.6,16.9-7.1,23-5.3,5.9-11.7,8.4-21.3,8.3-18.8-.1-30.4-15.6-27.1-36.3,1.9-11.5,7.6-19.2,16.7-22.6,5.7-2.1,19.7-1.4,24.9,1.3Z"/>
  <path class="cls-1" d="M2017.6,482.3c-6.7,1.1-13.7,4.9-16.4,8.9-8,11.9-3.5,24.7,10.2,28.9,3.3,1,10.8,2.6,16.6,3.6,16.4,2.7,20,4.9,20,11.7s-6.7,14-21.4,14.1c-7.7.1-10-.3-14-2.3-5-2.4-8.6-6.9-8.6-10.8s-.5-2.2-4.5-2.2h-4.6l.7,3.7c1.2,7,5.3,12.3,11.9,15.6,8.2,4.1,24.5,4.6,34.8,1.1,14.6-5,19.5-22.1,9.1-31.8-3.8-3.4-9.2-5.1-24.1-7.5-18.2-2.9-22.2-5.5-21-14.1.6-5,2.8-7.7,8.2-10.1,4.6-2.1,16.3-2.5,21.6-.8,4.8,1.6,9.8,6.6,10.5,10.6.6,3.1.9,3.3,4.5,3.3s3.9-.2,3.9-3-2.2-8.4-5.4-11.8c-5.8-6.5-18.8-9.4-32-7.1Z"/>
  <path class="cls-1" d="M1017,519.2v36h9v-72h-9v36Z"/>
  <path class="cls-1" d="M1142,484.1c0,.4,6.7,16.5,14.8,35.7l14.9,34.9h9.4l14.5-34c7.9-18.7,14.7-34.8,15-35.8.4-1.4-.1-1.7-3.9-1.7h-4.4l-12.5,30.2c-6.8,16.7-12.8,30.3-13.3,30.3s-6.5-13.6-13.4-30.2l-12.6-30.3h-4.2c-2.4,0-4.3.4-4.3.9Z"/>
  <path class="cls-1" d="M1477,519.2v36h8v-72h-8v36Z"/>
</svg>